<?xml version="1.0" encoding="utf-8"?>
<!-- Generator: Adobe Illustrator 27.5.0, SVG Export Plug-In . SVG Version: 6.00 Build 0)  -->
<svg version="1.1" xmlns="http://www.w3.org/2000/svg" xmlns:xlink="http://www.w3.org/1999/xlink" x="0px" y="0px"
	 viewBox="0 0 1227.4 359.8" enable-background="new 0 0 1227.4 359.8" xml:space="preserve">
<g id="Layer_1">
</g>
<g id="CDash">
	<g>
		<path fill="#F32735" d="M262.5,34.8c-16.8-4.9-34-7-51.3-6.1c-9.2,12.4-27.8,45.1-27.8,107.9c0,0,0.1,0,0.1,0
			c9.8-7.6,22.1-12.2,35.4-12.2c21.1,0,39.6,11.4,49.7,28.4c0,0,0.1,0,0.1,0c59.8,16.3,89.1,42,101.8,56.8
			C384.4,132.8,338.1,57,262.5,34.8z"/>
	</g>
	<g>
		<path fill="#0068C7" d="M218.9,240.4c-32,0-58-26-58-58c0-15,5.8-28.7,15.2-39c0.1-0.1,0.2-0.3,0.3-0.5
			c-1.2-62,15.2-97.3,25.8-113.7C124.8,37.6,65,103.4,65,182.2c0,53.5,28.3,103.7,73.9,131.6l0.5-0.1c5.2-1.6,9.8-3,15.2-5.8
			c16.9-9.3,42.3-28.5,68.4-67.5c-0.3,0-0.7,0-1,0C221,240.3,220,240.4,218.9,240.4z"/>
	</g>
	<path fill="#3EAE2B" d="M273.7,162c2.4,6.5,3.7,13.4,3.7,20.4c0,27-18.8,50.6-44.8,56.9c-33,51.4-66,71.8-83.8,79.7
		c68.7,35.3,154.2,13.7,197.5-51.1c10.2-15.2,17.5-31.8,21.7-49.5C358.8,206.2,332.9,179.5,273.7,162z"/>
	<path fill="#DCE3EC" d="M218.9,131.4c-28.1,0-51,22.9-51,51c0,28.1,22.9,51,51,51s51-22.9,51-51C269.9,154.3,247,131.4,218.9,131.4
		z"/>
	<g>
		<path fill="#003765" d="M513.9,268.4c23.1,0,41.9-7.6,51-14.3l3.3,21.5c-11.8,7.6-27,14.3-53.4,14.3c-57.1,0-81-30.3-81-97.1
			c0-64.9,22.2-100.4,80.1-100.4c25.5,0,39.8,7,52.5,14l-3.3,21.9c-13.4-7.9-29.4-14.3-50.1-14.3c-42.2,0-55.8,25.8-55.8,77.7
			C457.2,239.8,469,268.4,513.9,268.4z"/>
		<path fill="#003765" d="M601.7,95.1h56.4c60.1,0,83.5,28.2,83.5,95.3c0,61.9-22.2,96.5-83.5,96.5h-56.4V95.1z M718.2,191
			c0-48.3-11.5-74.4-60.1-74.4h-33.4v148.7h33.4C704.3,265.3,718.2,242.9,718.2,191z"/>
		<path fill="#003765" d="M875,280.8c-13.7,4.9-35.2,8.5-55.5,8.5c-35.2,0-58.6-11.8-58.6-44.9c0-32.8,23.4-45.2,63.1-45.2h28.8
			v-14.3c0-20-14-26.4-37-26.4c-17,0-31,3-40.1,6.4l-3.3-20.3c11.8-3.3,26.7-6.4,44.3-6.4c33.4,0,58.3,12.1,58.3,48.6V280.8z
			 M852.9,216.8h-28.5c-27,0-41.3,6.7-41.3,27.3c0,20.6,14.3,26.1,35.8,26.1c10.6,0,24.6-1.2,34-4.2V216.8z"/>
		<path fill="#003765" d="M905.8,260.5c11.5,4.2,31.6,7.9,47.9,7.9c19.4,0,35.8-5.8,35.8-21.2c0-34.9-84.7-11.2-84.7-66.8
			c0-31.3,26.1-42.2,56.1-42.2c15.8,0,32.2,3.9,44,9.1l-3.3,21.2c-11.2-5.5-28.5-9.4-42.8-9.4c-17.3,0-31.9,5.8-31.9,20.3
			c0,33.7,84.7,11.5,84.7,66.2c0,31.9-25.8,43.7-60.7,43.7c-17.6,0-35.5-3.6-48.6-7.9L905.8,260.5z"/>
		<path fill="#003765" d="M1036.1,74.4h22.2v69.5c10-3.6,23.7-5.8,39.5-5.8c35.2,0,59.8,12.1,59.8,58.6v90.1h-22.2v-90.1
			c0-31.9-15.5-37.6-37.9-37.6c-17.3,0-30.3,2.4-39.1,5.8v122h-22.2V74.4z"/>
	</g>
</g>
</svg>
