<?xml version="1.0" encoding="utf-8"?>
<!-- Generator: Adobe Illustrator 27.5.0, SVG Export Plug-In . SVG Version: 6.00 Build 0)  -->
<svg version="1.1" id="Layer_2_00000169539190736843936950000005655643275295020453_"
	 xmlns="http://www.w3.org/2000/svg" xmlns:xlink="http://www.w3.org/1999/xlink" x="0px" y="0px" viewBox="0 0 307.9 307.3"
	 style="enable-background:new 0 0 307.9 307.3;" xml:space="preserve">
<style type="text/css">
	.st0{fill:#F32735;}
	.st1{fill:#0068C7;}
	.st2{fill:#3EAE2B;}
	.st3{fill:#DCE3EC;}
</style>
<g id="CDash">
	<path class="st0" d="M197.4,6.3c-16.8-4.9-34-7-51.3-6.1c-9.2,12.4-27.8,45.1-27.8,107.9c0,0,0.1,0,0.1,0
		c9.8-7.6,22.1-12.2,35.4-12.2c21.1,0,39.6,11.4,49.7,28.3l0.1,0c59.8,16.3,89.1,42,101.8,56.8C319.4,104.3,273.1,28.5,197.4,6.3
		L197.4,6.3z"/>
	<path class="st1" d="M153.9,211.9c-32,0-58-26-58-58c0-15,5.8-28.7,15.2-39c0.1-0.2,0.2-0.3,0.3-0.5c-1.2-62,15.2-97.3,25.8-113.7
		C59.7,9.1,0,74.8,0,153.6c0,53.5,28.3,103.7,73.9,131.6l0.5-0.1c5.2-1.6,9.8-3,15.2-5.8c16.9-9.3,42.3-28.5,68.4-67.6
		c-0.3,0-0.7,0-1,0C155.9,211.7,154.9,211.8,153.9,211.9L153.9,211.9z"/>
	<path class="st2" d="M208.7,133.4c2.4,6.5,3.7,13.4,3.7,20.4c0,26.9-18.8,50.6-44.8,56.9c-33,51.4-66,71.9-83.8,79.7
		c68.7,35.3,154.2,13.7,197.5-51.1c10.2-15.2,17.5-31.8,21.7-49.5C293.7,177.7,267.8,151,208.7,133.4L208.7,133.4z"/>
	<path class="st3" d="M153.9,102.9c-28.1,0-51,22.9-51,51s22.9,51,51,51s51-22.9,51-51S182,102.9,153.9,102.9z"/>
</g>
</svg>
