<?xml version="1.0" encoding="UTF-8" standalone="no"?><!DOCTYPE svg PUBLIC "-//W3C//DTD SVG 1.1//EN" "http://www.w3.org/Graphics/SVG/1.1/DTD/svg11.dtd"><svg width="100%" height="100%" viewBox="0 0 24 24" version="1.1" xmlns="http://www.w3.org/2000/svg" xmlns:xlink="http://www.w3.org/1999/xlink" xml:space="preserve" xmlns:serif="http://www.serif.com/" style="fill-rule:evenodd;clip-rule:evenodd;stroke-linecap:round;stroke-linejoin:round;stroke-miterlimit:1.5;"><path d="M3.429,3.938c0,-0.281 -0.228,-0.509 -0.509,-0.509l-2.411,0c-0.281,0 -0.509,0.228 -0.509,0.509l0,2.41c0,0.281 0.228,0.509 0.509,0.509l2.411,0c0.281,0 0.509,-0.228 0.509,-0.509l0,-2.41Z"/><path d="M9.143,9.652c0,-0.281 -0.228,-0.509 -0.509,-0.509l-2.411,0c-0.281,0 -0.509,0.228 -0.509,0.509l0,2.41c0,0.281 0.228,0.509 0.509,0.509l2.411,0c0.281,0 0.509,-0.228 0.509,-0.509l0,-2.41Z"/><path d="M9.143,15.366c0,-0.281 -0.228,-0.509 -0.509,-0.509l-2.411,0c-0.281,0 -0.509,0.228 -0.509,0.509l0,2.411c0,0.281 0.228,0.509 0.509,0.509l2.411,0c0.281,0 0.509,-0.228 0.509,-0.509l0,-2.411Z"/><path d="M23.491,3.938c0,-0.281 -0.228,-0.509 -0.509,-0.509l-16.759,0c-0.281,0 -0.509,0.228 -0.509,0.509l0,2.41c0,0.281 0.228,0.509 0.509,0.509l16.759,0c0.281,0 0.509,-0.228 0.509,-0.509l0,-2.41Z"/><path d="M1.714,8l0,2.857l4,0" style="fill:none;stroke:#000;stroke-width:0.75px;"/><path d="M1.714,10.286l0,6.285l4,0" style="fill:none;stroke:#000;stroke-width:0.75px;"/><path d="M14.846,14.857c-0.158,0.501 -0.243,1.034 -0.243,1.587c0,0.648 0.117,1.268 0.331,1.842l-2.996,0c-0.281,0 -0.509,-0.228 -0.509,-0.509l0,-2.411c0,-0.281 0.228,-0.509 0.509,-0.509l2.908,0Z"/><path d="M22.982,9.143c0.281,0 0.509,0.228 0.509,0.509l0,2.41c0,0.156 -0.07,0.296 -0.18,0.389c-0.923,-0.796 -2.125,-1.277 -3.438,-1.277c-1.378,0 -2.634,0.53 -3.573,1.397l-4.362,0c-0.281,0 -0.509,-0.228 -0.509,-0.509l0,-2.41c0,-0.281 0.228,-0.509 0.509,-0.509l11.044,0Z"/><path d="M19.873,12.317c2.278,0 4.127,1.849 4.127,4.127c0,2.278 -1.849,4.127 -4.127,4.127c-2.278,0 -4.127,-1.849 -4.127,-4.127c0,-2.278 1.849,-4.127 4.127,-4.127Zm0.368,3.884l0,-1.731l-0.737,0l0,1.731l-1.731,0l0,0.728l1.731,0l0,1.744l0.737,0l0,-1.744l1.731,0l0,-0.728l-1.731,0Z"/></svg>