<?xml version="1.0" encoding="UTF-8" standalone="no"?><!DOCTYPE svg PUBLIC "-//W3C//DTD SVG 1.1//EN" "http://www.w3.org/Graphics/SVG/1.1/DTD/svg11.dtd"><svg width="100%" height="100%" viewBox="0 0 512 512" version="1.1" xmlns="http://www.w3.org/2000/svg" xmlns:xlink="http://www.w3.org/1999/xlink" xml:space="preserve" xmlns:serif="http://www.serif.com/" style="fill-rule:evenodd;clip-rule:evenodd;stroke-linejoin:round;stroke-miterlimit:1.41421;"><path d="M106.808,285.577l214.253,213.935c7.891,8.326 17.744,12.487 29.578,12.487c11.835,0 21.688,-4.166 29.578,-12.487l24.975,-24.65c8.108,-8.107 12.162,-17.961 12.162,-29.572c0,-11.392 -4.053,-21.363 -12.162,-29.905l-159.708,-159.387l159.715,-159.714c8.106,-8.107 12.16,-17.961 12.16,-29.574c0,-11.39 -4.053,-21.365 -12.16,-29.904l-24.977,-24.647c-8.107,-8.106 -17.97,-12.159 -29.578,-12.159c-11.613,0 -21.474,4.053 -29.578,12.159l-214.258,213.936c-8.111,8.544 -12.168,18.513 -12.168,29.904c-0.001,11.612 4.057,21.472 12.168,29.578Z" style="fill:#fff;fill-rule:nonzero;"/></svg>