<?xml version="1.0" encoding="UTF-8"?><svg id="Layer_2" xmlns="http://www.w3.org/2000/svg" viewBox="0 0 1092.44 307.3"><g id="CDash"><path d="m197.45,6.28C180.69,1.36,163.46-.68,146.13.2c-9.23,12.38-27.83,45.13-27.79,107.87,0,0,.1.01.11.01,9.81-7.61,22.08-12.19,35.43-12.19,21.13,0,39.61,11.41,49.74,28.35,0,0,.09.02.09.02,59.78,16.29,89.1,41.99,101.77,56.82,13.87-76.76-32.42-152.59-108.03-174.8Z" style="fill:#f32735;"/><path d="m153.88,211.85c-31.97,0-57.98-26.01-57.98-57.98,0-15.03,5.8-28.7,15.21-39.01.11-.15.2-.33.32-.46-1.22-61.96,15.18-97.33,25.83-113.65C59.72,9.06,0,74.84,0,153.64c0,53.46,28.28,103.72,73.9,131.56l.47-.15c5.24-1.62,9.77-3.03,15.24-5.81,16.93-9.26,42.28-28.48,68.37-67.55-.34.02-.67-.02-1.01-.01-1.03.05-2.05.16-3.09.16Z" style="fill:#0068c7;"/><path d="m208.68,133.45c2.42,6.51,3.68,13.44,3.68,20.42,0,26.95-18.77,50.63-44.83,56.88-32.98,51.4-66,71.85-83.77,79.68,68.66,35.33,154.16,13.69,197.49-51.12,10.16-15.21,17.46-31.84,21.7-49.46-9.21-12.17-35.11-38.83-94.27-56.39Z" style="fill:#3eae2b;"/><path d="m171.32,205.49c.26-.09.51-.17.77-.26-.26.09-.51.18-.77.26Z" style="fill:#064f8c;"/><path d="m171.32,208.04c-1.06,0-2.05-.67-2.41-1.73-.09-.27-.13-.54-.13-.81,0-1.06.67-2.05,1.73-2.41l.13-.04c.2-.07.4-.13.6-.2,1.32-.47,2.78.22,3.25,1.55.1.28.15.57.15.85,0,1.05-.65,2.03-1.69,2.4-.23.08-.45.16-.68.23l-.13.04c-.27.09-.54.13-.81.13Z" style="fill:#fff;"/><path d="m166.84,206.79c.26-.06.52-.12.77-.19-.26.07-.51.13-.77.19Z" style="fill:#064f8c;"/><path d="m166.84,209.34c-1.15,0-2.19-.78-2.47-1.94-.05-.2-.07-.41-.07-.6,0-1.15.78-2.18,1.94-2.47l.74-.18c1.36-.34,2.75.47,3.09,1.83.05.21.08.42.08.63,0,1.13-.76,2.17-1.91,2.46l-.8.2c-.2.05-.4.07-.6.07Z" style="fill:#fff;"/><path d="m169.1,206.19c.26-.07.52-.15.77-.23-.26.08-.51.15-.77.23Z" style="fill:#064f8c;"/><path d="m169.1,208.73c-1.1,0-2.12-.72-2.44-1.84-.07-.24-.1-.47-.1-.71,0-1.1.72-2.12,1.84-2.44l.74-.22c1.34-.41,2.76.35,3.17,1.69.41,1.34-.34,2.76-1.69,3.18-.22.07-.45.13-.67.2l-.14.04c-.24.07-.47.1-.71.1Z" style="fill:#fff;"/><path d="m153.88,102.86c-28.12,0-51.01,22.89-51.01,51.02s22.89,51.01,51.01,51.01,51.01-22.89,51.01-51.01-22.89-51.02-51.01-51.02Z" style="fill:#dce3ec;"/><path d="m448.9,239.84c23.06,0,41.88-7.59,50.98-14.26l3.34,21.55c-11.84,7.59-27.01,14.26-53.41,14.26-57.05,0-81.03-30.35-81.03-97.11s22.15-100.45,80.12-100.45c25.49,0,39.76,6.98,52.5,13.96l-3.34,21.85c-13.35-7.89-29.44-14.26-50.07-14.26-42.18,0-55.84,25.79-55.84,77.69,0,48.25,11.84,76.78,56.75,76.78Z" style="fill:#003765;"/><path d="m536.64,66.55h56.45c60.09,0,83.45,28.22,83.45,95.29,0,61.91-22.15,96.5-83.45,96.5h-56.45V66.55Zm116.53,95.9c0-48.25-11.53-74.35-60.09-74.35h-33.38v148.7h33.38c46.13,0,60.09-22.46,60.09-74.35Z" style="fill:#003765;"/><path d="m810,252.28c-13.66,4.86-35.2,8.5-55.54,8.5-35.2,0-58.57-11.84-58.57-44.91s23.37-45.22,63.12-45.22h28.83v-14.26c0-20.03-13.96-26.4-37.02-26.4-17,0-30.95,3.03-40.06,6.37l-3.34-20.33c11.84-3.34,26.7-6.37,44.31-6.37,33.38,0,58.27,12.14,58.27,48.56v94.08Zm-22.15-64.03h-28.53c-27.01,0-41.27,6.68-41.27,27.31s14.26,26.1,35.81,26.1c10.62,0,24.58-1.22,33.99-4.25v-49.16Z" style="fill:#003765;"/><path d="m840.72,231.95c11.53,4.25,31.56,7.89,47.95,7.89,19.42,0,35.81-5.77,35.81-21.24,0-34.9-84.67-11.23-84.67-66.76,0-31.26,26.1-42.18,56.14-42.18,15.78,0,32.17,3.95,44,9.1l-3.34,21.24c-11.23-5.46-28.53-9.41-42.79-9.41-17.3,0-31.86,5.77-31.86,20.33,0,33.69,84.67,11.53,84.67,66.16,0,31.87-25.8,43.7-60.69,43.7-17.6,0-35.51-3.64-48.56-7.89l3.34-20.94Z" style="fill:#003765;"/><path d="m971.05,45.92h22.15v69.49c10.01-3.64,23.67-5.77,39.45-5.77,35.2,0,59.78,12.14,59.78,58.57v90.13h-22.15v-90.13c0-31.86-15.48-37.63-37.93-37.63-17.3,0-30.35,2.43-39.15,5.77v121.99h-22.15V45.92Z" style="fill:#003765;"/></g></svg>