<?xml version="1.0" encoding="UTF-8"?><svg id="Layer_2" xmlns="http://www.w3.org/2000/svg" viewBox="0 0 307.93 307.3"><g id="CDash"><path d="m197.45,6.28C180.69,1.36,163.46-.68,146.13.2c-9.23,12.38-27.83,45.13-27.79,107.87,0,0,.1.01.11.01,9.81-7.61,22.08-12.19,35.43-12.19,21.13,0,39.61,11.41,49.74,28.35,0,0,.09.02.09.02,59.78,16.29,89.1,41.99,101.77,56.82,13.87-76.76-32.42-152.59-108.03-174.8Z" style="fill:#f32735;"/><path d="m153.88,211.85c-31.97,0-57.98-26.01-57.98-57.98,0-15.03,5.8-28.7,15.21-39.01.11-.15.2-.33.32-.46-1.22-61.96,15.18-97.33,25.83-113.65C59.72,9.06,0,74.84,0,153.64c0,53.46,28.28,103.72,73.9,131.56l.47-.15c5.24-1.62,9.77-3.03,15.24-5.81,16.93-9.26,42.28-28.48,68.37-67.55-.34.02-.67-.02-1.01-.01-1.03.05-2.05.16-3.09.16Z" style="fill:#0068c7;"/><path d="m208.68,133.45c2.42,6.51,3.68,13.44,3.68,20.42,0,26.95-18.77,50.63-44.83,56.88-32.98,51.4-66,71.85-83.77,79.68,68.66,35.33,154.16,13.69,197.49-51.12,10.16-15.21,17.46-31.84,21.7-49.46-9.21-12.17-35.11-38.83-94.27-56.39Z" style="fill:#3eae2b;"/><path d="m171.32,205.49c.26-.09.51-.17.77-.26-.26.09-.51.18-.77.26Z" style="fill:#064f8c;"/><path d="m171.32,208.04c-1.06,0-2.05-.67-2.41-1.73-.09-.27-.13-.54-.13-.81,0-1.06.67-2.05,1.73-2.41l.13-.04c.2-.07.4-.13.6-.2,1.32-.47,2.78.22,3.25,1.55.1.28.15.57.15.85,0,1.05-.65,2.03-1.69,2.4-.23.08-.45.16-.68.23l-.13.04c-.27.09-.54.13-.81.13Z" style="fill:#fff;"/><path d="m166.84,206.79c.26-.06.52-.12.77-.19-.26.07-.51.13-.77.19Z" style="fill:#064f8c;"/><path d="m166.84,209.34c-1.15,0-2.19-.78-2.47-1.94-.05-.2-.07-.41-.07-.6,0-1.15.78-2.18,1.94-2.47l.74-.18c1.36-.34,2.75.47,3.09,1.83.05.21.08.42.08.63,0,1.13-.76,2.17-1.91,2.46l-.8.2c-.2.05-.4.07-.6.07Z" style="fill:#fff;"/><path d="m169.1,206.19c.26-.07.52-.15.77-.23-.26.08-.51.15-.77.23Z" style="fill:#064f8c;"/><path d="m169.1,208.73c-1.1,0-2.12-.72-2.44-1.84-.07-.24-.1-.47-.1-.71,0-1.1.72-2.12,1.84-2.44l.74-.22c1.34-.41,2.76.35,3.17,1.69.41,1.34-.34,2.76-1.69,3.18-.22.07-.45.13-.67.2l-.14.04c-.24.07-.47.1-.71.1Z" style="fill:#fff;"/><path d="m153.88,102.86c-28.12,0-51.01,22.89-51.01,51.02s22.89,51.01,51.01,51.01,51.01-22.89,51.01-51.01-22.89-51.02-51.01-51.02Z" style="fill:#dce3ec;"/></g></svg>