<svg width="792" height="245" viewBox="0 0 792 245" fill="none" xmlns="http://www.w3.org/2000/svg">
<path d="M104.6 52.1L68.8 92.6L77.5 102.7L124.5 49.5H110.4C108.2 49.5 106.1 50.4 104.6 52.1Z" fill="#3EAE2B"/>
<path d="M132.1 52.1L82.4 108.3L91.1 118.4L152 49.5H137.9C135.7 49.5 133.5 50.4 132.1 52.1Z" fill="#3EAE2B"/>
<path d="M179.4 49.5H165.4C163.2 49.5 161 50.5 159.5 52.1L95.9 124.1L153.3 190.8C154.8 192.5 156.9 193.5 159.2 193.5H173L113.3 124.2L179.4 49.5Z" fill="#3EAE2B"/>
<path d="M118.7 193.5L68.8 135.6V155.8L99 190.8C100.5 192.5 102.6 193.5 104.9 193.5H118.7Z" fill="#0068C7"/>
<path d="M145.9 193.5L68.8 104V124.2L126.2 190.8C127.7 192.5 129.8 193.5 132.1 193.5H145.9Z" fill="#0068C7"/>
<path d="M203.8 60H216.9V182.8H203.8V60ZM256.9 96H273.6L237.6 137L277.2 182.7H260.5L220.9 137L256.9 96Z" fill="#0068C7"/>
<path d="M294 57.7C298.7 57.7 302.5 61.7 302.5 66.3C302.5 71 298.7 74.8 294 74.8C289.1 74.8 285.4 71 285.4 66.3C285.4 61.5 289.2 57.7 294 57.7ZM287.4 96H300.5V182.8H287.4V96Z" fill="#0068C7"/>
<path d="M320.4 72.6H333.5V96H368.2V108.4H333.5V152.3C333.5 167.2 340.2 171.7 350.2 171.7C357.4 171.7 365 169.9 370 167.6L372 180C366.2 182.5 358.3 184.1 350.2 184.1C332.7 184.1 320.3 176 320.3 152.2V72.6H320.4Z" fill="#0068C7"/>
<path d="M414.9 165L438.5 96H451.8L475.4 164.9L498.9 96H512.4L482.2 182.8H468.7L445.1 116.4L421.5 182.8H408L377.8 96H391.3L414.9 165Z" fill="#0068C7"/>
<path d="M583.5 179.2C575.4 182.1 562.6 184.2 550.6 184.2C529.7 184.2 515.9 177.2 515.9 157.6C515.9 138.2 529.8 130.8 553.3 130.8H570.4V122.3C570.4 110.4 562.1 106.6 548.4 106.6C538.3 106.6 530 108.4 524.6 110.4L522.6 98.3C529.6 96.3 538.4 94.5 548.9 94.5C568.7 94.5 583.5 101.7 583.5 123.3V179.2ZM570.4 141.2H553.5C537.5 141.2 529 145.2 529 157.4C529 169.6 537.5 172.9 550.2 172.9C556.5 172.9 564.8 172.2 570.4 170.4V141.2Z" fill="#0068C7"/>
<path d="M603.6 99.6C609.4 96.9 620.2 94.7 630.8 94.7C637.6 94.7 643.4 95.4 648.1 96.9L645.6 109.1C642.9 108 637.5 107.1 631.2 107.1C623.8 107.1 619.9 108 616.8 109.4V182.7H603.7V99.6H603.6Z" fill="#0068C7"/>
<path d="M724.3 144.6H665V145.3C665 163.7 675.6 171.8 693.6 171.8C703.7 171.8 714.3 169.3 720.8 165.9L722.8 178.3C714.3 182.1 704.1 184.2 693.5 184.2C665.8 184.2 651.7 170.3 651.7 139.6C651.7 114.6 660.9 94.6 689.3 94.6C712.2 94.6 725.7 107.4 725.7 132.6C725.7 136.2 725.3 140.8 724.3 144.6ZM665 133.5H713.1V132.4C713.1 113.9 703.7 106.3 689 106.3C674.4 106.3 665.1 113.7 665.1 132.4V133.5H665Z" fill="#0068C7"/>
</svg>
